<svg width="106" height="18" viewBox="0 0 106 18" fill="none" xmlns="http://www.w3.org/2000/svg">
<path d="M-1.22041e-05 17.3601H5.39999V8.28011H5.89999L11.62 17.3601H17.84V0.560108H12.44V9.64011H11.94L6.35999 0.560108H-1.22041e-05V17.3601ZM19.2422 17.3601H24.7822V11.4601H33.9222V7.46011H24.7822V5.18011H34.3422V0.560108H19.2422V17.3601ZM53.2622 0.560108H35.6422V5.18011H41.6822V17.3601H47.2222V5.18011H53.2622V0.560108ZM54.5625 17.3601H69.7025V12.9201H60.1025V10.7801H69.3425V7.14011H60.1025V5.00011H69.7025V0.560108H54.5625V17.3601ZM88.5694 17.3601L85.5694 11.8401C86.9894 10.8401 88.0094 9.24011 88.0094 6.98011C88.0094 2.56011 85.3894 0.560108 80.7294 0.560108H71.1094V17.3601H76.6494V13.0201H80.8494L83.1294 17.3601H88.5694ZM76.6494 5.16011H80.3494C81.7494 5.16011 82.4694 5.84011 82.4694 7.02011C82.4694 8.20011 81.7494 8.88011 80.3494 8.88011H76.6494V5.16011ZM97.0625 17.9201C102.822 17.9401 105.662 16.1201 105.662 12.4601C105.662 7.86011 101.082 7.76011 97.7425 7.20011L95.9625 6.90011C94.6825 6.70011 94.3825 6.12011 94.3825 5.64011C94.3825 4.88011 95.1425 4.32011 96.9825 4.32011C99.1025 4.32011 100.042 5.02011 100.242 6.14011H105.182C105.282 1.34011 101.922 0.000106812 97.1025 0.000106812C91.7625 0.000106812 89.0625 2.04011 89.0625 5.36011C89.0625 9.66011 92.8825 10.0401 96.0625 10.5601L98.2225 10.9001C99.8625 11.1401 100.162 11.7001 100.162 12.2401C100.162 13.0201 99.1825 13.6201 97.0625 13.6001C94.6625 13.5801 93.7025 12.8801 93.6425 11.7401H88.6625C88.5225 16.1001 91.2625 17.9001 97.0625 17.9201Z" fill="#3D00B7"/>
</svg>
